# xmcd
#
# Track frame offsets: 
#        150
#        15815
#        35102
#        52996
#        70598
#        96944
#        125042
#        142185
#        161518
#        177211
#        192243
#        216894
#        237690
#        255257
#
# Disc length: 3562 seconds
#
# Revision: 0
# Processed by: cddbd v1.5.2PL0 Copyright (c) Steve Scherf et al.
# Submitted via: ExactAudioCopy v0.90b4
#
DISCID=c40de80e
DTITLE=Christina Lux - The Compilation Album
DYEAR=2009
DGENRE=Blues
TTITLE0=Shelter
TTITLE1=Healing Waters
TTITLE2=Endless Fall
TTITLE3=To the World
TTITLE4=Believe
TTITLE5=It Ain't Mine
TTITLE6=Coming Home at Last
TTITLE7=Liar
TTITLE8=Talk to Me
TTITLE9=Love Label
TTITLE10=Diggi
TTITLE11=Why?
TTITLE12=She's Got
TTITLE13=Tumbler
EXTD=
EXTT0=
EXTT1=
EXTT2=
EXTT3=
EXTT4=
EXTT5=
EXTT6=
EXTT7=
EXTT8=
EXTT9=
EXTT10=
EXTT11=
EXTT12=
EXTT13=
PLAYORDER=
